<svg id="visual" viewBox="0 0 1920 1080" width="1920" height="1080" xmlns="http://www.w3.org/2000/svg" xmlns:xlink="http://www.w3.org/1999/xlink" version="1.1"><path d="M0 120L53.3 134.3C106.7 148.7 213.3 177.3 320 175.5C426.7 173.7 533.3 141.3 640 143.2C746.7 145 853.3 181 960 179.2C1066.7 177.3 1173.3 137.7 1280 123.3C1386.7 109 1493.3 120 1600 134.5C1706.7 149 1813.3 167 1866.7 176L1920 185L1920 0L1866.7 0C1813.3 0 1706.7 0 1600 0C1493.3 0 1386.7 0 1280 0C1173.3 0 1066.7 0 960 0C853.3 0 746.7 0 640 0C533.3 0 426.7 0 320 0C213.3 0 106.7 0 53.3 0L0 0Z" fill="#84afef"></path><path d="M0 239L53.3 251.5C106.7 264 213.3 289 320 317.7C426.7 346.3 533.3 378.7 640 418.3C746.7 458 853.3 505 960 532C1066.7 559 1173.3 566 1280 553.3C1386.7 540.7 1493.3 508.3 1600 486.8C1706.7 465.3 1813.3 454.7 1866.7 449.3L1920 444L1920 183L1866.7 174C1813.3 165 1706.7 147 1600 132.5C1493.3 118 1386.7 107 1280 121.3C1173.3 135.7 1066.7 175.3 960 177.2C853.3 179 746.7 143 640 141.2C533.3 139.3 426.7 171.7 320 173.5C213.3 175.3 106.7 146.7 53.3 132.3L0 118Z" fill="#6b97d5"></path><path d="M0 487L53.3 481.7C106.7 476.3 213.3 465.7 320 490.8C426.7 516 533.3 577 640 602.2C746.7 627.3 853.3 616.7 960 614.8C1066.7 613 1173.3 620 1280 616.3C1386.7 612.7 1493.3 598.3 1600 591.2C1706.7 584 1813.3 584 1866.7 584L1920 584L1920 442L1866.7 447.3C1813.3 452.7 1706.7 463.3 1600 484.8C1493.3 506.3 1386.7 538.7 1280 551.3C1173.3 564 1066.7 557 960 530C853.3 503 746.7 456 640 416.3C533.3 376.7 426.7 344.3 320 315.7C213.3 287 106.7 262 53.3 249.5L0 237Z" fill="#5180bc"></path><path d="M0 714L53.3 710.3C106.7 706.7 213.3 699.3 320 726.3C426.7 753.3 533.3 814.7 640 854.3C746.7 894 853.3 912 960 894C1066.7 876 1173.3 822 1280 787.8C1386.7 753.7 1493.3 739.3 1600 755.5C1706.7 771.7 1813.3 818.3 1866.7 841.7L1920 865L1920 582L1866.7 582C1813.3 582 1706.7 582 1600 589.2C1493.3 596.3 1386.7 610.7 1280 614.3C1173.3 618 1066.7 611 960 612.8C853.3 614.7 746.7 625.3 640 600.2C533.3 575 426.7 514 320 488.8C213.3 463.7 106.7 474.3 53.3 479.7L0 485Z" fill="#366aa4"></path><path d="M0 1081L53.3 1081C106.7 1081 213.3 1081 320 1081C426.7 1081 533.3 1081 640 1081C746.7 1081 853.3 1081 960 1081C1066.7 1081 1173.3 1081 1280 1081C1386.7 1081 1493.3 1081 1600 1081C1706.7 1081 1813.3 1081 1866.7 1081L1920 1081L1920 863L1866.7 839.7C1813.3 816.3 1706.7 769.7 1600 753.5C1493.3 737.3 1386.7 751.7 1280 785.8C1173.3 820 1066.7 874 960 892C853.3 910 746.7 892 640 852.3C533.3 812.7 426.7 751.3 320 724.3C213.3 697.3 106.7 704.7 53.3 708.3L0 712Z" fill="#15548c"></path></svg>