<svg id="visual" viewBox="0 0 1920 1080" width="1920" height="1080" xmlns="http://www.w3.org/2000/svg" xmlns:xlink="http://www.w3.org/1999/xlink" version="1.1"><g stroke-width="1" stroke-linejoin="bevel"><path d="M950 593L837 584L924 643Z" fill="#0d1920" stroke="#0d1920"></path><path d="M837 584L867 663L924 643Z" fill="#006968" stroke="#006968"></path><path d="M837 584L812 677L867 663Z" fill="#083e49" stroke="#083e49"></path><path d="M904 406L793 529L837 584Z" fill="#008672" stroke="#008672"></path><path d="M837 584L724 637L812 677Z" fill="#083e49" stroke="#083e49"></path><path d="M867 663L935 708L924 643Z" fill="#0d313c" stroke="#0d313c"></path><path d="M924 643L935 708L950 593Z" fill="#030b11" stroke="#030b11"></path><path d="M883 816L935 708L867 663Z" fill="#0d1920" stroke="#0d1920"></path><path d="M1113 590L1050 526L950 593Z" fill="#083e49" stroke="#083e49"></path><path d="M950 593L904 406L837 584Z" fill="#004c55" stroke="#004c55"></path><path d="M793 529L724 562L837 584Z" fill="#004c55" stroke="#004c55"></path><path d="M724 637L746 686L812 677Z" fill="#083e49" stroke="#083e49"></path><path d="M883 816L999 770L935 708Z" fill="#0d1920" stroke="#0d1920"></path><path d="M724 562L724 637L837 584Z" fill="#006968" stroke="#006968"></path><path d="M724 637L722 674L746 686Z" fill="#0e252e" stroke="#0e252e"></path><path d="M695 659L722 674L724 637Z" fill="#008672" stroke="#008672"></path><path d="M1050 526L904 406L950 593Z" fill="#0e252e" stroke="#0e252e"></path><path d="M793 529L736 457L724 562Z" fill="#030b11" stroke="#030b11"></path><path d="M904 406L865 406L793 529Z" fill="#030b11" stroke="#030b11"></path><path d="M883 816L867 663L812 677Z" fill="#0d313c" stroke="#0d313c"></path><path d="M1117 597L1113 590L950 593Z" fill="#083e49" stroke="#083e49"></path><path d="M617 600L695 659L724 637Z" fill="#083e49" stroke="#083e49"></path><path d="M812 400L736 457L793 529Z" fill="#083e49" stroke="#083e49"></path><path d="M724 562L617 600L724 637Z" fill="#005a60" stroke="#005a60"></path><path d="M786 347L812 400L850 321Z" fill="#030b11" stroke="#030b11"></path><path d="M865 406L812 400L793 529Z" fill="#00776e" stroke="#00776e"></path><path d="M1117 597L950 593L935 708Z" fill="#009473" stroke="#009473"></path><path d="M719 767L746 686L722 674Z" fill="#009473" stroke="#009473"></path><path d="M719 767L812 677L746 686Z" fill="#008672" stroke="#008672"></path><path d="M719 767L883 816L812 677Z" fill="#008672" stroke="#008672"></path><path d="M1125 725L1117 597L935 708Z" fill="#0e252e" stroke="#0e252e"></path><path d="M1067 429L967 377L1050 526Z" fill="#0d1920" stroke="#0d1920"></path><path d="M1050 526L967 377L904 406Z" fill="#030b11" stroke="#030b11"></path><path d="M850 321L812 400L865 406Z" fill="#004c55" stroke="#004c55"></path><path d="M1067 429L1050 526L1140 461Z" fill="#00776e" stroke="#00776e"></path><path d="M1109 417L1067 429L1140 461Z" fill="#00776e" stroke="#00776e"></path><path d="M695 659L719 767L722 674Z" fill="#0e252e" stroke="#0e252e"></path><path d="M1087 848L1125 725L999 770Z" fill="#008672" stroke="#008672"></path><path d="M999 770L1125 725L935 708Z" fill="#030b11" stroke="#030b11"></path><path d="M850 321L865 406L904 406Z" fill="#005a60" stroke="#005a60"></path><path d="M812 400L698 384L736 457Z" fill="#0d313c" stroke="#0d313c"></path><path d="M617 576L724 562L736 457Z" fill="#00776e" stroke="#00776e"></path><path d="M617 576L617 600L724 562Z" fill="#006968" stroke="#006968"></path><path d="M695 659L548 727L719 767Z" fill="#008672" stroke="#008672"></path><path d="M581 465L617 576L736 457Z" fill="#0d313c" stroke="#0d313c"></path><path d="M967 377L850 321L904 406Z" fill="#005a60" stroke="#005a60"></path><path d="M909 899L961 865L883 816Z" fill="#0e252e" stroke="#0e252e"></path><path d="M883 816L961 865L999 770Z" fill="#0e252e" stroke="#0e252e"></path><path d="M1140 461L1050 526L1113 590Z" fill="#0e252e" stroke="#0e252e"></path><path d="M1067 429L1029 317L967 377Z" fill="#0e252e" stroke="#0e252e"></path><path d="M967 377L913 244L850 321Z" fill="#0d313c" stroke="#0d313c"></path><path d="M1140 461L1113 590L1202 584Z" fill="#083e49" stroke="#083e49"></path><path d="M1202 584L1113 590L1117 597Z" fill="#083e49" stroke="#083e49"></path><path d="M786 347L698 384L812 400Z" fill="#083e49" stroke="#083e49"></path><path d="M757 864L827 884L883 816Z" fill="#030b11" stroke="#030b11"></path><path d="M672 870L757 864L719 767Z" fill="#009473" stroke="#009473"></path><path d="M719 767L757 864L883 816Z" fill="#005a60" stroke="#005a60"></path><path d="M827 884L909 899L883 816Z" fill="#006968" stroke="#006968"></path><path d="M1231 704L1202 584L1117 597Z" fill="#008672" stroke="#008672"></path><path d="M1107 339L1029 317L1067 429Z" fill="#005a60" stroke="#005a60"></path><path d="M961 865L1087 848L999 770Z" fill="#083e49" stroke="#083e49"></path><path d="M1231 704L1224 577L1202 584Z" fill="#0d313c" stroke="#0d313c"></path><path d="M1064 904L1087 848L961 865Z" fill="#00776e" stroke="#00776e"></path><path d="M704 310L698 384L786 347Z" fill="#005a60" stroke="#005a60"></path><path d="M704 310L625 408L698 384Z" fill="#0d1920" stroke="#0d1920"></path><path d="M698 384L625 408L736 457Z" fill="#005a60" stroke="#005a60"></path><path d="M1231 704L1117 597L1125 725Z" fill="#083e49" stroke="#083e49"></path><path d="M1202 584L1214 474L1140 461Z" fill="#004c55" stroke="#004c55"></path><path d="M1193 415L1107 339L1109 417Z" fill="#0d1920" stroke="#0d1920"></path><path d="M1193 415L1109 417L1140 461Z" fill="#083e49" stroke="#083e49"></path><path d="M1109 417L1107 339L1067 429Z" fill="#004c55" stroke="#004c55"></path><path d="M625 408L581 465L736 457Z" fill="#006968" stroke="#006968"></path><path d="M524 664L548 727L617 600Z" fill="#006968" stroke="#006968"></path><path d="M1087 848L1155 811L1125 725Z" fill="#004c55" stroke="#004c55"></path><path d="M752 235L786 347L850 321Z" fill="#083e49" stroke="#083e49"></path><path d="M752 235L704 310L786 347Z" fill="#030b11" stroke="#030b11"></path><path d="M1224 577L1214 474L1202 584Z" fill="#083e49" stroke="#083e49"></path><path d="M827 884L917 944L909 899Z" fill="#0e252e" stroke="#0e252e"></path><path d="M909 899L980 942L961 865Z" fill="#083e49" stroke="#083e49"></path><path d="M1087 848L1216 926L1155 811Z" fill="#004c55" stroke="#004c55"></path><path d="M892 1001L917 944L827 884Z" fill="#00776e" stroke="#00776e"></path><path d="M1214 474L1193 415L1140 461Z" fill="#004c55" stroke="#004c55"></path><path d="M1020 208L913 244L1029 317Z" fill="#083e49" stroke="#083e49"></path><path d="M1029 317L913 244L967 377Z" fill="#009473" stroke="#009473"></path><path d="M627 853L672 870L719 767Z" fill="#0d313c" stroke="#0d313c"></path><path d="M803 1030L892 1001L827 884Z" fill="#004c55" stroke="#004c55"></path><path d="M548 727L695 659L617 600Z" fill="#006968" stroke="#006968"></path><path d="M980 942L1064 904L961 865Z" fill="#006968" stroke="#006968"></path><path d="M1193 809L1231 704L1125 725Z" fill="#0e252e" stroke="#0e252e"></path><path d="M917 944L980 942L909 899Z" fill="#005a60" stroke="#005a60"></path><path d="M1216 926L1193 809L1155 811Z" fill="#0d1920" stroke="#0d1920"></path><path d="M1155 811L1193 809L1125 725Z" fill="#030b11" stroke="#030b11"></path><path d="M524 539L617 600L617 576Z" fill="#030b11" stroke="#030b11"></path><path d="M548 727L627 853L719 767Z" fill="#0d313c" stroke="#0d313c"></path><path d="M980 942L1060 928L1064 904Z" fill="#030b11" stroke="#030b11"></path><path d="M1064 904L1216 926L1087 848Z" fill="#005a60" stroke="#005a60"></path><path d="M581 465L524 539L617 576Z" fill="#083e49" stroke="#083e49"></path><path d="M524 539L524 664L617 600Z" fill="#008672" stroke="#008672"></path><path d="M913 244L752 235L850 321Z" fill="#0d1920" stroke="#0d1920"></path><path d="M704 310L538 343L625 408Z" fill="#008672" stroke="#008672"></path><path d="M625 408L538 343L581 465Z" fill="#0d313c" stroke="#0d313c"></path><path d="M581 465L448 418L524 539Z" fill="#083e49" stroke="#083e49"></path><path d="M1224 577L1274 510L1214 474Z" fill="#0d313c" stroke="#0d313c"></path><path d="M1214 474L1350 384L1193 415Z" fill="#008672" stroke="#008672"></path><path d="M1377 606L1274 510L1224 577Z" fill="#004c55" stroke="#004c55"></path><path d="M752 235L723 241L704 310Z" fill="#0d313c" stroke="#0d313c"></path><path d="M803 1030L827 884L757 864Z" fill="#008672" stroke="#008672"></path><path d="M917 944L892 1001L980 942Z" fill="#0d1920" stroke="#0d1920"></path><path d="M980 942L1104 1080L1060 928Z" fill="#0d1920" stroke="#0d1920"></path><path d="M628 943L757 864L672 870Z" fill="#0d313c" stroke="#0d313c"></path><path d="M526 842L573 847L548 727Z" fill="#006968" stroke="#006968"></path><path d="M548 727L573 847L627 853Z" fill="#006968" stroke="#006968"></path><path d="M627 853L628 943L672 870Z" fill="#083e49" stroke="#083e49"></path><path d="M1027 140L1020 208L1152 141Z" fill="#083e49" stroke="#083e49"></path><path d="M1107 339L1020 208L1029 317Z" fill="#0d1920" stroke="#0d1920"></path><path d="M913 244L826 151L752 235Z" fill="#0d313c" stroke="#0d313c"></path><path d="M1020 208L1107 339L1196 225Z" fill="#0e252e" stroke="#0e252e"></path><path d="M1329 805L1306 706L1231 704Z" fill="#005a60" stroke="#005a60"></path><path d="M1231 704L1306 706L1224 577Z" fill="#00776e" stroke="#00776e"></path><path d="M536 273L538 343L557 251Z" fill="#083e49" stroke="#083e49"></path><path d="M573 847L628 943L627 853Z" fill="#0e252e" stroke="#0e252e"></path><path d="M387 574L463 692L524 664Z" fill="#004c55" stroke="#004c55"></path><path d="M524 664L463 692L548 727Z" fill="#009473" stroke="#009473"></path><path d="M573 847L529 909L628 943Z" fill="#030b11" stroke="#030b11"></path><path d="M403 681L463 692L387 574Z" fill="#0d1920" stroke="#0d1920"></path><path d="M400 764L526 842L548 727Z" fill="#008672" stroke="#008672"></path><path d="M628 943L803 1030L757 864Z" fill="#083e49" stroke="#083e49"></path><path d="M948 69L826 151L913 244Z" fill="#083e49" stroke="#083e49"></path><path d="M752 235L665 190L723 241Z" fill="#009473" stroke="#009473"></path><path d="M723 241L665 190L704 310Z" fill="#009473" stroke="#009473"></path><path d="M529 909L625 970L628 943Z" fill="#030b11" stroke="#030b11"></path><path d="M628 943L625 970L803 1030Z" fill="#0d1920" stroke="#0d1920"></path><path d="M1200 958L1216 926L1064 904Z" fill="#004c55" stroke="#004c55"></path><path d="M1193 809L1329 805L1231 704Z" fill="#0e252e" stroke="#0e252e"></path><path d="M1200 958L1064 904L1060 928Z" fill="#030b11" stroke="#030b11"></path><path d="M1200 958L1060 928L1169 1019Z" fill="#008672" stroke="#008672"></path><path d="M826 151L665 190L752 235Z" fill="#009473" stroke="#009473"></path><path d="M1216 926L1282 854L1193 809Z" fill="#030b11" stroke="#030b11"></path><path d="M1196 225L1107 339L1193 415Z" fill="#00776e" stroke="#00776e"></path><path d="M1020 208L1027 140L913 244Z" fill="#005a60" stroke="#005a60"></path><path d="M961 1080L980 942L892 1001Z" fill="#005a60" stroke="#005a60"></path><path d="M1216 926L1404 960L1282 854Z" fill="#008672" stroke="#008672"></path><path d="M1259 216L1196 225L1193 415Z" fill="#0d1920" stroke="#0d1920"></path><path d="M494 323L448 418L538 343Z" fill="#0e252e" stroke="#0e252e"></path><path d="M538 343L448 418L581 465Z" fill="#004c55" stroke="#004c55"></path><path d="M436 962L529 909L526 842Z" fill="#0d1920" stroke="#0d1920"></path><path d="M526 842L529 909L573 847Z" fill="#005a60" stroke="#005a60"></path><path d="M557 251L538 343L704 310Z" fill="#006968" stroke="#006968"></path><path d="M665 190L557 251L704 310Z" fill="#0d313c" stroke="#0d313c"></path><path d="M536 273L494 323L538 343Z" fill="#030b11" stroke="#030b11"></path><path d="M1376 552L1357 458L1274 510Z" fill="#00776e" stroke="#00776e"></path><path d="M1274 510L1357 458L1214 474Z" fill="#005a60" stroke="#005a60"></path><path d="M1377 606L1224 577L1306 706Z" fill="#0d1920" stroke="#0d1920"></path><path d="M1478 769L1329 805L1473 828Z" fill="#005a60" stroke="#005a60"></path><path d="M1282 854L1329 805L1193 809Z" fill="#0e252e" stroke="#0e252e"></path><path d="M1478 769L1377 606L1306 706Z" fill="#005a60" stroke="#005a60"></path><path d="M785 1080L890 1080L803 1030Z" fill="#0d313c" stroke="#0d313c"></path><path d="M803 1030L890 1080L892 1001Z" fill="#004c55" stroke="#004c55"></path><path d="M1377 606L1376 552L1274 510Z" fill="#030b11" stroke="#030b11"></path><path d="M890 1080L961 1080L892 1001Z" fill="#030b11" stroke="#030b11"></path><path d="M1259 216L1199 212L1196 225Z" fill="#005a60" stroke="#005a60"></path><path d="M1196 225L1152 141L1020 208Z" fill="#0e252e" stroke="#0e252e"></path><path d="M1377 606L1383 570L1376 552Z" fill="#083e49" stroke="#083e49"></path><path d="M1402 420L1395 411L1357 458Z" fill="#0d313c" stroke="#0d313c"></path><path d="M1480 539L1385 581L1377 606Z" fill="#030b11" stroke="#030b11"></path><path d="M1377 606L1385 581L1383 570Z" fill="#083e49" stroke="#083e49"></path><path d="M725 1080L803 1030L625 970Z" fill="#0d1920" stroke="#0d1920"></path><path d="M725 1080L785 1080L803 1030Z" fill="#006968" stroke="#006968"></path><path d="M387 574L524 664L524 539Z" fill="#009473" stroke="#009473"></path><path d="M463 692L400 764L548 727Z" fill="#0d313c" stroke="#0d313c"></path><path d="M1395 411L1350 384L1357 458Z" fill="#0d313c" stroke="#0d313c"></path><path d="M1357 458L1350 384L1214 474Z" fill="#004c55" stroke="#004c55"></path><path d="M1357 458L1480 539L1402 420Z" fill="#083e49" stroke="#083e49"></path><path d="M1104 1080L1169 1019L1060 928Z" fill="#0d1920" stroke="#0d1920"></path><path d="M1200 958L1224 1035L1216 926Z" fill="#0d1920" stroke="#0d1920"></path><path d="M448 418L387 574L524 539Z" fill="#009473" stroke="#009473"></path><path d="M520 1080L725 1080L625 970Z" fill="#005a60" stroke="#005a60"></path><path d="M557 251L508 160L536 273Z" fill="#006968" stroke="#006968"></path><path d="M384 237L398 357L494 323Z" fill="#0d313c" stroke="#0d313c"></path><path d="M665 190L616 157L557 251Z" fill="#004c55" stroke="#004c55"></path><path d="M657 78L616 157L665 190Z" fill="#009473" stroke="#009473"></path><path d="M772 58L665 190L826 151Z" fill="#009473" stroke="#009473"></path><path d="M403 681L400 764L463 692Z" fill="#005a60" stroke="#005a60"></path><path d="M311 708L400 764L403 681Z" fill="#083e49" stroke="#083e49"></path><path d="M1199 212L1152 141L1196 225Z" fill="#0d1920" stroke="#0d1920"></path><path d="M1264 191L1152 141L1199 212Z" fill="#030b11" stroke="#030b11"></path><path d="M1347 282L1259 216L1193 415Z" fill="#083e49" stroke="#083e49"></path><path d="M961 1080L1104 1080L980 942Z" fill="#030b11" stroke="#030b11"></path><path d="M1027 53L948 69L1027 140Z" fill="#005a60" stroke="#005a60"></path><path d="M1027 140L948 69L913 244Z" fill="#0d1920" stroke="#0d1920"></path><path d="M1104 1080L1109 1080L1169 1019Z" fill="#006968" stroke="#006968"></path><path d="M1357 458L1376 552L1480 539Z" fill="#008672" stroke="#008672"></path><path d="M1316 182L1264 191L1259 216Z" fill="#004c55" stroke="#004c55"></path><path d="M1480 539L1376 552L1383 570Z" fill="#008672" stroke="#008672"></path><path d="M1347 282L1193 415L1350 384Z" fill="#008672" stroke="#008672"></path><path d="M948 69L888 53L826 151Z" fill="#0e252e" stroke="#0e252e"></path><path d="M1347 282L1350 384L1418 279Z" fill="#008672" stroke="#008672"></path><path d="M1259 216L1264 191L1199 212Z" fill="#006968" stroke="#006968"></path><path d="M494 323L398 357L448 418Z" fill="#009473" stroke="#009473"></path><path d="M448 418L336 495L387 574Z" fill="#009473" stroke="#009473"></path><path d="M384 237L494 323L536 273Z" fill="#083e49" stroke="#083e49"></path><path d="M1215 1080L1224 1035L1169 1019Z" fill="#00776e" stroke="#00776e"></path><path d="M1169 1019L1224 1035L1200 958Z" fill="#009473" stroke="#009473"></path><path d="M888 53L772 58L826 151Z" fill="#004c55" stroke="#004c55"></path><path d="M1418 279L1350 384L1395 411Z" fill="#009473" stroke="#009473"></path><path d="M995 0L1027 53L1118 0Z" fill="#030b11" stroke="#030b11"></path><path d="M1152 141L1027 53L1027 140Z" fill="#009473" stroke="#009473"></path><path d="M995 0L829 0L888 53Z" fill="#009473" stroke="#009473"></path><path d="M336 495L331 591L387 574Z" fill="#009473" stroke="#009473"></path><path d="M387 574L331 591L403 681Z" fill="#0d1920" stroke="#0d1920"></path><path d="M398 357L336 495L448 418Z" fill="#006968" stroke="#006968"></path><path d="M772 58L657 78L665 190Z" fill="#00776e" stroke="#00776e"></path><path d="M616 157L529 149L557 251Z" fill="#004c55" stroke="#004c55"></path><path d="M600 62L529 149L616 157Z" fill="#009473" stroke="#009473"></path><path d="M437 96L508 160L529 149Z" fill="#008672" stroke="#008672"></path><path d="M529 149L508 160L557 251Z" fill="#00776e" stroke="#00776e"></path><path d="M1109 1080L1215 1080L1169 1019Z" fill="#0e252e" stroke="#0e252e"></path><path d="M1454 852L1329 805L1433 936Z" fill="#0e252e" stroke="#0e252e"></path><path d="M333 852L526 842L400 764Z" fill="#008672" stroke="#008672"></path><path d="M333 852L436 962L526 842Z" fill="#0e252e" stroke="#0e252e"></path><path d="M529 909L520 1080L625 970Z" fill="#030b11" stroke="#030b11"></path><path d="M1582 692L1480 539L1377 606Z" fill="#0d1920" stroke="#0d1920"></path><path d="M1385 581L1480 539L1383 570Z" fill="#0e252e" stroke="#0e252e"></path><path d="M1534 395L1418 279L1395 411Z" fill="#009473" stroke="#009473"></path><path d="M1478 769L1306 706L1329 805Z" fill="#030b11" stroke="#030b11"></path><path d="M1347 282L1316 182L1259 216Z" fill="#00776e" stroke="#00776e"></path><path d="M1264 191L1278 38L1152 141Z" fill="#006968" stroke="#006968"></path><path d="M1418 279L1316 182L1347 282Z" fill="#005a60" stroke="#005a60"></path><path d="M299 575L311 708L331 591Z" fill="#00776e" stroke="#00776e"></path><path d="M331 591L311 708L403 681Z" fill="#0d1920" stroke="#0d1920"></path><path d="M282 540L299 575L336 495Z" fill="#009473" stroke="#009473"></path><path d="M336 495L299 575L331 591Z" fill="#009473" stroke="#009473"></path><path d="M888 53L829 0L772 58Z" fill="#005a60" stroke="#005a60"></path><path d="M772 58L744 0L657 78Z" fill="#0d1920" stroke="#0d1920"></path><path d="M995 0L888 53L948 69Z" fill="#030b11" stroke="#030b11"></path><path d="M1118 0L1027 53L1152 141Z" fill="#005a60" stroke="#005a60"></path><path d="M1027 53L995 0L948 69Z" fill="#00776e" stroke="#00776e"></path><path d="M609 0L600 62L657 78Z" fill="#004c55" stroke="#004c55"></path><path d="M657 78L600 62L616 157Z" fill="#009473" stroke="#009473"></path><path d="M230 707L307 763L311 708Z" fill="#0d313c" stroke="#0d313c"></path><path d="M311 708L307 763L400 764Z" fill="#009473" stroke="#009473"></path><path d="M1329 805L1282 854L1404 960Z" fill="#083e49" stroke="#083e49"></path><path d="M437 1018L520 1080L529 909Z" fill="#0e252e" stroke="#0e252e"></path><path d="M1534 395L1395 411L1402 420Z" fill="#0e252e" stroke="#0e252e"></path><path d="M243 414L282 540L336 495Z" fill="#0e252e" stroke="#0e252e"></path><path d="M211 605L230 707L311 708Z" fill="#0e252e" stroke="#0e252e"></path><path d="M243 414L336 495L398 357Z" fill="#004c55" stroke="#004c55"></path><path d="M829 0L744 0L772 58Z" fill="#083e49" stroke="#083e49"></path><path d="M307 763L333 852L400 764Z" fill="#0e252e" stroke="#0e252e"></path><path d="M436 962L437 1018L529 909Z" fill="#005a60" stroke="#005a60"></path><path d="M1404 960L1216 926L1224 1035Z" fill="#009473" stroke="#009473"></path><path d="M408 1080L437 1018L254 953Z" fill="#0e252e" stroke="#0e252e"></path><path d="M367 222L384 237L437 96Z" fill="#006968" stroke="#006968"></path><path d="M508 160L384 237L536 273Z" fill="#0d313c" stroke="#0d313c"></path><path d="M1454 852L1473 828L1329 805Z" fill="#030b11" stroke="#030b11"></path><path d="M1328 1080L1404 960L1224 1035Z" fill="#004c55" stroke="#004c55"></path><path d="M1454 852L1515 931L1473 828Z" fill="#00776e" stroke="#00776e"></path><path d="M437 1018L485 1080L520 1080Z" fill="#008672" stroke="#008672"></path><path d="M744 0L674 0L657 78Z" fill="#0e252e" stroke="#0e252e"></path><path d="M437 96L384 237L508 160Z" fill="#030b11" stroke="#030b11"></path><path d="M1199 0L1118 0L1152 141Z" fill="#006968" stroke="#006968"></path><path d="M1404 960L1433 936L1329 805Z" fill="#004c55" stroke="#004c55"></path><path d="M437 96L529 149L510 0Z" fill="#004c55" stroke="#004c55"></path><path d="M384 237L264 320L398 357Z" fill="#030b11" stroke="#030b11"></path><path d="M1215 1080L1328 1080L1224 1035Z" fill="#083e49" stroke="#083e49"></path><path d="M1495 1080L1515 931L1433 936Z" fill="#009473" stroke="#009473"></path><path d="M674 0L609 0L657 78Z" fill="#005a60" stroke="#005a60"></path><path d="M1396 109L1327 95L1316 182Z" fill="#004c55" stroke="#004c55"></path><path d="M1316 182L1327 95L1264 191Z" fill="#009473" stroke="#009473"></path><path d="M1278 38L1199 0L1152 141Z" fill="#008672" stroke="#008672"></path><path d="M1591 580L1534 395L1480 539Z" fill="#0e252e" stroke="#0e252e"></path><path d="M1480 539L1534 395L1402 420Z" fill="#006968" stroke="#006968"></path><path d="M1418 279L1396 109L1316 182Z" fill="#009473" stroke="#009473"></path><path d="M1582 692L1377 606L1478 769Z" fill="#0d1920" stroke="#0d1920"></path><path d="M211 605L311 708L299 575Z" fill="#009473" stroke="#009473"></path><path d="M307 763L240 855L333 852Z" fill="#008672" stroke="#008672"></path><path d="M254 953L437 1018L436 962Z" fill="#004c55" stroke="#004c55"></path><path d="M211 605L299 575L282 540Z" fill="#006968" stroke="#006968"></path><path d="M240 404L243 414L398 357Z" fill="#008672" stroke="#008672"></path><path d="M510 0L529 149L600 62Z" fill="#030b11" stroke="#030b11"></path><path d="M264 320L240 404L398 357Z" fill="#083e49" stroke="#083e49"></path><path d="M1327 95L1278 38L1264 191Z" fill="#083e49" stroke="#083e49"></path><path d="M1588 755L1555 740L1576 838Z" fill="#009473" stroke="#009473"></path><path d="M1576 838L1555 740L1478 769Z" fill="#00776e" stroke="#00776e"></path><path d="M264 320L384 237L367 222Z" fill="#005a60" stroke="#005a60"></path><path d="M164 552L211 605L282 540Z" fill="#009473" stroke="#009473"></path><path d="M164 552L282 540L243 414Z" fill="#030b11" stroke="#030b11"></path><path d="M254 953L436 962L333 852Z" fill="#0d313c" stroke="#0d313c"></path><path d="M437 1018L408 1080L485 1080Z" fill="#083e49" stroke="#083e49"></path><path d="M242 326L264 320L239 275Z" fill="#083e49" stroke="#083e49"></path><path d="M1555 740L1582 692L1478 769Z" fill="#00776e" stroke="#00776e"></path><path d="M1582 692L1591 580L1480 539Z" fill="#008672" stroke="#008672"></path><path d="M1489 219L1396 109L1418 279Z" fill="#0d313c" stroke="#0d313c"></path><path d="M1286 0L1282 0L1278 38Z" fill="#009473" stroke="#009473"></path><path d="M1573 328L1529 300L1534 395Z" fill="#004c55" stroke="#004c55"></path><path d="M1534 395L1529 300L1418 279Z" fill="#0d313c" stroke="#0d313c"></path><path d="M233 850L307 763L230 707Z" fill="#005a60" stroke="#005a60"></path><path d="M233 850L240 855L307 763Z" fill="#0d313c" stroke="#0d313c"></path><path d="M239 275L264 320L367 222Z" fill="#009473" stroke="#009473"></path><path d="M264 320L242 326L240 404Z" fill="#0d1920" stroke="#0d1920"></path><path d="M139 437L164 552L243 414Z" fill="#030b11" stroke="#030b11"></path><path d="M1529 300L1489 219L1418 279Z" fill="#0d1920" stroke="#0d1920"></path><path d="M1555 740L1588 755L1582 692Z" fill="#083e49" stroke="#083e49"></path><path d="M1433 936L1515 931L1454 852Z" fill="#083e49" stroke="#083e49"></path><path d="M1495 1080L1433 936L1404 960Z" fill="#009473" stroke="#009473"></path><path d="M216 898L233 850L150 853Z" fill="#008672" stroke="#008672"></path><path d="M240 855L254 953L333 852Z" fill="#083e49" stroke="#083e49"></path><path d="M609 0L510 0L600 62Z" fill="#0d1920" stroke="#0d1920"></path><path d="M229 168L239 275L367 222Z" fill="#005a60" stroke="#005a60"></path><path d="M1286 0L1278 38L1327 95Z" fill="#0d313c" stroke="#0d313c"></path><path d="M1278 38L1282 0L1199 0Z" fill="#008672" stroke="#008672"></path><path d="M1437 0L1286 0L1327 95Z" fill="#0d1920" stroke="#0d1920"></path><path d="M1576 838L1478 769L1473 828Z" fill="#004c55" stroke="#004c55"></path><path d="M1582 692L1655 651L1591 580Z" fill="#030b11" stroke="#030b11"></path><path d="M1588 755L1607 699L1582 692Z" fill="#083e49" stroke="#083e49"></path><path d="M1515 931L1576 838L1473 828Z" fill="#0d313c" stroke="#0d313c"></path><path d="M1733 690L1655 651L1607 699Z" fill="#0d1920" stroke="#0d1920"></path><path d="M229 168L367 222L331 27Z" fill="#030b11" stroke="#030b11"></path><path d="M139 437L243 414L240 404Z" fill="#009473" stroke="#009473"></path><path d="M139 437L240 404L242 326Z" fill="#00776e" stroke="#00776e"></path><path d="M110 636L148 774L230 707Z" fill="#083e49" stroke="#083e49"></path><path d="M1645 430L1573 328L1534 395Z" fill="#009473" stroke="#009473"></path><path d="M1585 182L1489 158L1489 219Z" fill="#005a60" stroke="#005a60"></path><path d="M1645 430L1534 395L1591 580Z" fill="#004c55" stroke="#004c55"></path><path d="M216 898L240 855L233 850Z" fill="#005a60" stroke="#005a60"></path><path d="M216 898L254 953L240 855Z" fill="#004c55" stroke="#004c55"></path><path d="M1489 219L1489 158L1396 109Z" fill="#008672" stroke="#008672"></path><path d="M1396 109L1437 0L1327 95Z" fill="#00776e" stroke="#00776e"></path><path d="M1550 129L1489 158L1585 182Z" fill="#00776e" stroke="#00776e"></path><path d="M148 774L233 850L230 707Z" fill="#00776e" stroke="#00776e"></path><path d="M1576 838L1680 812L1588 755Z" fill="#009473" stroke="#009473"></path><path d="M1515 931L1590 861L1576 838Z" fill="#0e252e" stroke="#0e252e"></path><path d="M510 0L430 0L437 96Z" fill="#006968" stroke="#006968"></path><path d="M1680 812L1607 699L1588 755Z" fill="#00776e" stroke="#00776e"></path><path d="M1607 699L1655 651L1582 692Z" fill="#004c55" stroke="#004c55"></path><path d="M1515 931L1575 940L1590 861Z" fill="#008672" stroke="#008672"></path><path d="M1590 861L1680 812L1576 838Z" fill="#009473" stroke="#009473"></path><path d="M1495 1080L1575 940L1515 931Z" fill="#008672" stroke="#008672"></path><path d="M110 636L230 707L211 605Z" fill="#0d313c" stroke="#0d313c"></path><path d="M1726 445L1645 430L1756 545Z" fill="#030b11" stroke="#030b11"></path><path d="M1585 182L1489 219L1529 300Z" fill="#0e252e" stroke="#0e252e"></path><path d="M137 233L139 437L242 326Z" fill="#006968" stroke="#006968"></path><path d="M164 552L110 636L211 605Z" fill="#006968" stroke="#006968"></path><path d="M1328 1080L1495 1080L1404 960Z" fill="#0d1920" stroke="#0d1920"></path><path d="M112 521L110 636L164 552Z" fill="#009473" stroke="#009473"></path><path d="M139 437L112 521L164 552Z" fill="#00776e" stroke="#00776e"></path><path d="M148 774L150 853L233 850Z" fill="#0d313c" stroke="#0d313c"></path><path d="M195 1042L253 1080L254 953Z" fill="#008672" stroke="#008672"></path><path d="M122 933L150 853L0 912Z" fill="#009473" stroke="#009473"></path><path d="M331 27L367 222L437 96Z" fill="#006968" stroke="#006968"></path><path d="M239 275L137 233L242 326Z" fill="#0e252e" stroke="#0e252e"></path><path d="M430 0L331 27L437 96Z" fill="#00776e" stroke="#00776e"></path><path d="M195 1042L254 953L122 933Z" fill="#030b11" stroke="#030b11"></path><path d="M254 953L253 1080L408 1080Z" fill="#00776e" stroke="#00776e"></path><path d="M1585 182L1529 300L1625 229Z" fill="#030b11" stroke="#030b11"></path><path d="M1489 158L1437 0L1396 109Z" fill="#00776e" stroke="#00776e"></path><path d="M1625 229L1529 300L1573 328Z" fill="#0d1920" stroke="#0d1920"></path><path d="M1550 129L1437 0L1489 158Z" fill="#030b11" stroke="#030b11"></path><path d="M1634 970L1590 861L1575 940Z" fill="#004c55" stroke="#004c55"></path><path d="M1715 944L1680 812L1590 861Z" fill="#008672" stroke="#008672"></path><path d="M1756 545L1645 430L1591 580Z" fill="#0e252e" stroke="#0e252e"></path><path d="M1696 307L1625 229L1573 328Z" fill="#009473" stroke="#009473"></path><path d="M1585 182L1574 124L1550 129Z" fill="#0e252e" stroke="#0e252e"></path><path d="M1693 133L1574 124L1585 182Z" fill="#009473" stroke="#009473"></path><path d="M1550 129L1591 0L1437 0Z" fill="#005a60" stroke="#005a60"></path><path d="M122 933L254 953L216 898Z" fill="#0d1920" stroke="#0d1920"></path><path d="M1581 1080L1634 970L1575 940Z" fill="#008672" stroke="#008672"></path><path d="M246 0L179 159L229 168Z" fill="#009473" stroke="#009473"></path><path d="M229 168L137 233L239 275Z" fill="#083e49" stroke="#083e49"></path><path d="M139 437L39 413L112 521Z" fill="#005a60" stroke="#005a60"></path><path d="M179 159L137 233L229 168Z" fill="#0e252e" stroke="#0e252e"></path><path d="M1495 1080L1581 1080L1575 940Z" fill="#0e252e" stroke="#0e252e"></path><path d="M0 819L150 853L148 774Z" fill="#006968" stroke="#006968"></path><path d="M150 853L122 933L216 898Z" fill="#0d1920" stroke="#0d1920"></path><path d="M1761 650L1733 690L1785 670Z" fill="#00776e" stroke="#00776e"></path><path d="M1680 812L1733 690L1607 699Z" fill="#083e49" stroke="#083e49"></path><path d="M1645 430L1696 307L1573 328Z" fill="#008672" stroke="#008672"></path><path d="M1756 545L1591 580L1655 651Z" fill="#008672" stroke="#008672"></path><path d="M1726 445L1696 307L1645 430Z" fill="#006968" stroke="#006968"></path><path d="M1625 229L1693 133L1585 182Z" fill="#008672" stroke="#008672"></path><path d="M1581 1080L1595 1080L1634 970Z" fill="#004c55" stroke="#004c55"></path><path d="M1761 650L1756 545L1655 651Z" fill="#083e49" stroke="#083e49"></path><path d="M1726 445L1770 390L1696 307Z" fill="#004c55" stroke="#004c55"></path><path d="M1785 670L1733 690L1765 848Z" fill="#009473" stroke="#009473"></path><path d="M1733 690L1761 650L1655 651Z" fill="#0d1920" stroke="#0d1920"></path><path d="M1715 944L1590 861L1634 970Z" fill="#00776e" stroke="#00776e"></path><path d="M43 297L39 413L139 437Z" fill="#00776e" stroke="#00776e"></path><path d="M0 548L0 638L110 636Z" fill="#0d313c" stroke="#0d313c"></path><path d="M110 636L0 658L148 774Z" fill="#030b11" stroke="#030b11"></path><path d="M430 0L250 0L331 27Z" fill="#030b11" stroke="#030b11"></path><path d="M331 27L250 0L229 168Z" fill="#083e49" stroke="#083e49"></path><path d="M63 237L43 297L137 233Z" fill="#006968" stroke="#006968"></path><path d="M137 233L43 297L139 437Z" fill="#004c55" stroke="#004c55"></path><path d="M250 0L246 0L229 168Z" fill="#00776e" stroke="#00776e"></path><path d="M1778 547L1771 477L1756 545Z" fill="#0e252e" stroke="#0e252e"></path><path d="M1756 545L1771 477L1726 445Z" fill="#008672" stroke="#008672"></path><path d="M1761 650L1778 547L1756 545Z" fill="#009473" stroke="#009473"></path><path d="M81 1032L147 1080L195 1042Z" fill="#030b11" stroke="#030b11"></path><path d="M195 1042L147 1080L253 1080Z" fill="#008672" stroke="#008672"></path><path d="M1735 1005L1715 944L1634 970Z" fill="#008672" stroke="#008672"></path><path d="M1761 650L1785 670L1778 547Z" fill="#00776e" stroke="#00776e"></path><path d="M0 548L110 636L112 521Z" fill="#0d313c" stroke="#0d313c"></path><path d="M122 933L81 1032L195 1042Z" fill="#006968" stroke="#006968"></path><path d="M0 430L0 548L112 521Z" fill="#009473" stroke="#009473"></path><path d="M1765 848L1733 690L1680 812Z" fill="#083e49" stroke="#083e49"></path><path d="M0 638L0 658L110 636Z" fill="#0e252e" stroke="#0e252e"></path><path d="M1920 422L1770 390L1771 477Z" fill="#008672" stroke="#008672"></path><path d="M1771 477L1770 390L1726 445Z" fill="#083e49" stroke="#083e49"></path><path d="M1696 307L1722 243L1625 229Z" fill="#030b11" stroke="#030b11"></path><path d="M1792 218L1920 381L1866 208Z" fill="#030b11" stroke="#030b11"></path><path d="M1770 390L1722 243L1696 307Z" fill="#006968" stroke="#006968"></path><path d="M1574 124L1591 0L1550 129Z" fill="#005a60" stroke="#005a60"></path><path d="M63 237L137 233L179 159Z" fill="#0d1920" stroke="#0d1920"></path><path d="M39 413L0 430L112 521Z" fill="#083e49" stroke="#083e49"></path><path d="M47 81L63 237L179 159Z" fill="#005a60" stroke="#005a60"></path><path d="M1715 944L1765 848L1680 812Z" fill="#008672" stroke="#008672"></path><path d="M0 410L0 430L39 413Z" fill="#006968" stroke="#006968"></path><path d="M43 297L0 410L39 413Z" fill="#008672" stroke="#008672"></path><path d="M0 232L0 410L43 297Z" fill="#006968" stroke="#006968"></path><path d="M1620 0L1591 0L1574 124Z" fill="#00776e" stroke="#00776e"></path><path d="M0 658L0 819L148 774Z" fill="#030b11" stroke="#030b11"></path><path d="M0 975L81 1032L122 933Z" fill="#083e49" stroke="#083e49"></path><path d="M1722 243L1693 133L1625 229Z" fill="#005a60" stroke="#005a60"></path><path d="M1674 34L1693 133L1771 43Z" fill="#005a60" stroke="#005a60"></path><path d="M81 1032L103 1080L147 1080Z" fill="#004c55" stroke="#004c55"></path><path d="M1707 1080L1735 1005L1634 970Z" fill="#0d313c" stroke="#0d313c"></path><path d="M1715 944L1834 930L1765 848Z" fill="#0e252e" stroke="#0e252e"></path><path d="M1674 34L1620 0L1574 124Z" fill="#009473" stroke="#009473"></path><path d="M246 0L132 37L179 159Z" fill="#006968" stroke="#006968"></path><path d="M63 237L0 232L43 297Z" fill="#0e252e" stroke="#0e252e"></path><path d="M1595 1080L1707 1080L1634 970Z" fill="#008672" stroke="#008672"></path><path d="M0 819L0 912L150 853Z" fill="#0e252e" stroke="#0e252e"></path><path d="M81 1032L0 1080L103 1080Z" fill="#00776e" stroke="#00776e"></path><path d="M1786 197L1693 133L1722 243Z" fill="#00776e" stroke="#00776e"></path><path d="M1693 133L1674 34L1574 124Z" fill="#006968" stroke="#006968"></path><path d="M0 163L0 232L63 237Z" fill="#0e252e" stroke="#0e252e"></path><path d="M0 912L0 975L122 933Z" fill="#0d313c" stroke="#0d313c"></path><path d="M1920 549L1771 477L1778 547Z" fill="#004c55" stroke="#004c55"></path><path d="M1770 390L1792 218L1722 243Z" fill="#005a60" stroke="#005a60"></path><path d="M1792 218L1786 197L1722 243Z" fill="#004c55" stroke="#004c55"></path><path d="M1809 1080L1800 977L1735 1005Z" fill="#009473" stroke="#009473"></path><path d="M1735 1005L1800 977L1715 944Z" fill="#004c55" stroke="#004c55"></path><path d="M1765 848L1874 717L1785 670Z" fill="#008672" stroke="#008672"></path><path d="M1920 654L1920 549L1778 547Z" fill="#00776e" stroke="#00776e"></path><path d="M1920 753L1874 717L1920 833Z" fill="#005a60" stroke="#005a60"></path><path d="M132 37L47 81L179 159Z" fill="#083e49" stroke="#083e49"></path><path d="M47 81L0 163L63 237Z" fill="#0d313c" stroke="#0d313c"></path><path d="M1800 977L1834 930L1715 944Z" fill="#0d313c" stroke="#0d313c"></path><path d="M132 37L79 0L47 81Z" fill="#0e252e" stroke="#0e252e"></path><path d="M47 81L0 103L0 163Z" fill="#030b11" stroke="#030b11"></path><path d="M246 0L79 0L132 37Z" fill="#0d1920" stroke="#0d1920"></path><path d="M0 975L0 1080L81 1032Z" fill="#0d313c" stroke="#0d313c"></path><path d="M0 0L0 103L47 81Z" fill="#006968" stroke="#006968"></path><path d="M1920 654L1785 670L1874 717Z" fill="#00776e" stroke="#00776e"></path><path d="M1920 654L1778 547L1785 670Z" fill="#0e252e" stroke="#0e252e"></path><path d="M1866 208L1771 43L1786 197Z" fill="#00776e" stroke="#00776e"></path><path d="M1920 753L1920 654L1874 717Z" fill="#030b11" stroke="#030b11"></path><path d="M1800 977L1920 996L1834 930Z" fill="#0d313c" stroke="#0d313c"></path><path d="M1920 833L1874 717L1765 848Z" fill="#083e49" stroke="#083e49"></path><path d="M1707 1080L1809 1080L1735 1005Z" fill="#0e252e" stroke="#0e252e"></path><path d="M1786 197L1771 43L1693 133Z" fill="#030b11" stroke="#030b11"></path><path d="M1674 34L1782 0L1620 0Z" fill="#0e252e" stroke="#0e252e"></path><path d="M1866 208L1786 197L1792 218Z" fill="#0d313c" stroke="#0d313c"></path><path d="M1920 833L1765 848L1834 930Z" fill="#030b11" stroke="#030b11"></path><path d="M1920 549L1920 422L1771 477Z" fill="#030b11" stroke="#030b11"></path><path d="M1920 381L1792 218L1770 390Z" fill="#0d1920" stroke="#0d1920"></path><path d="M1920 422L1920 381L1770 390Z" fill="#0d313c" stroke="#0d313c"></path><path d="M1920 892L1920 833L1834 930Z" fill="#0d1920" stroke="#0d1920"></path><path d="M1920 996L1920 892L1834 930Z" fill="#0e252e" stroke="#0e252e"></path><path d="M1811 0L1782 0L1771 43Z" fill="#005a60" stroke="#005a60"></path><path d="M1771 43L1782 0L1674 34Z" fill="#0d1920" stroke="#0d1920"></path><path d="M79 0L0 0L47 81Z" fill="#004c55" stroke="#004c55"></path><path d="M1920 381L1920 239L1866 208Z" fill="#005a60" stroke="#005a60"></path><path d="M1920 34L1811 0L1771 43Z" fill="#004c55" stroke="#004c55"></path><path d="M1920 239L1920 227L1866 208Z" fill="#006968" stroke="#006968"></path><path d="M1920 34L1771 43L1866 208Z" fill="#0e252e" stroke="#0e252e"></path><path d="M1809 1080L1920 996L1800 977Z" fill="#0d313c" stroke="#0d313c"></path><path d="M1809 1080L1920 1080L1920 996Z" fill="#030b11" stroke="#030b11"></path><path d="M1920 227L1920 34L1866 208Z" fill="#009473" stroke="#009473"></path><path d="M1920 34L1920 0L1811 0Z" fill="#083e49" stroke="#083e49"></path></g></svg>