<svg id="visual" viewBox="0 0 1920 1080" width="1920" height="1080" xmlns="http://www.w3.org/2000/svg" xmlns:xlink="http://www.w3.org/1999/xlink" version="1.1"><g stroke-width="1" stroke-linejoin="bevel"><path d="M933 584L943 659L986 662Z" fill="#004a6b" stroke="#004a6b"></path><path d="M822 669L904 707L943 659Z" fill="#054154" stroke="#054154"></path><path d="M943 659L904 707L986 662Z" fill="#1b61bb" stroke="#1b61bb"></path><path d="M986 662L1094 588L933 584Z" fill="#005999" stroke="#005999"></path><path d="M807 540L834 581L933 584Z" fill="#054154" stroke="#054154"></path><path d="M933 584L834 581L943 659Z" fill="#2b63c5" stroke="#2b63c5"></path><path d="M1010 759L1050 731L986 662Z" fill="#005ca5" stroke="#005ca5"></path><path d="M986 662L1050 731L1094 588Z" fill="#005383" stroke="#005383"></path><path d="M1094 588L991 477L933 584Z" fill="#00465f" stroke="#00465f"></path><path d="M904 707L1010 759L986 662Z" fill="#005ca5" stroke="#005ca5"></path><path d="M834 581L822 669L943 659Z" fill="#004a6b" stroke="#004a6b"></path><path d="M904 707L864 750L1010 759Z" fill="#004f77" stroke="#004f77"></path><path d="M834 581L807 631L822 669Z" fill="#00465f" stroke="#00465f"></path><path d="M822 669L864 750L904 707Z" fill="#00465f" stroke="#00465f"></path><path d="M1094 588L1089 493L991 477Z" fill="#005ca5" stroke="#005ca5"></path><path d="M911 439L807 540L933 584Z" fill="#0b5fb0" stroke="#0b5fb0"></path><path d="M834 581L785 567L807 631Z" fill="#1b61bb" stroke="#1b61bb"></path><path d="M1089 493L1076 472L991 477Z" fill="#00465f" stroke="#00465f"></path><path d="M907 362L911 439L991 477Z" fill="#004f77" stroke="#004f77"></path><path d="M991 477L911 439L933 584Z" fill="#004f77" stroke="#004f77"></path><path d="M807 540L785 567L834 581Z" fill="#2b63c5" stroke="#2b63c5"></path><path d="M1176 679L1157 589L1094 588Z" fill="#054154" stroke="#054154"></path><path d="M1094 588L1147 492L1089 493Z" fill="#005383" stroke="#005383"></path><path d="M1089 493L1147 492L1076 472Z" fill="#005383" stroke="#005383"></path><path d="M906 874L1050 814L1010 759Z" fill="#005ca5" stroke="#005ca5"></path><path d="M1010 759L1050 814L1050 731Z" fill="#1b61bb" stroke="#1b61bb"></path><path d="M1050 731L1176 679L1094 588Z" fill="#005383" stroke="#005383"></path><path d="M1109 850L1176 679L1050 731Z" fill="#005ca5" stroke="#005ca5"></path><path d="M1157 589L1147 492L1094 588Z" fill="#0b5fb0" stroke="#0b5fb0"></path><path d="M1171 411L1147 492L1257 440Z" fill="#004a6b" stroke="#004a6b"></path><path d="M995 299L907 362L991 477Z" fill="#00465f" stroke="#00465f"></path><path d="M911 439L757 413L807 540Z" fill="#1b61bb" stroke="#1b61bb"></path><path d="M807 540L682 502L785 567Z" fill="#00568e" stroke="#00568e"></path><path d="M906 335L907 362L995 299Z" fill="#1b61bb" stroke="#1b61bb"></path><path d="M755 777L906 874L864 750Z" fill="#0b5fb0" stroke="#0b5fb0"></path><path d="M864 750L906 874L1010 759Z" fill="#054154" stroke="#054154"></path><path d="M643 672L755 777L822 669Z" fill="#004a6b" stroke="#004a6b"></path><path d="M822 669L755 777L864 750Z" fill="#1b61bb" stroke="#1b61bb"></path><path d="M643 672L822 669L807 631Z" fill="#1b61bb" stroke="#1b61bb"></path><path d="M1050 940L1109 850L1050 814Z" fill="#004f77" stroke="#004f77"></path><path d="M1050 814L1109 850L1050 731Z" fill="#005ca5" stroke="#005ca5"></path><path d="M995 299L991 477L1091 320Z" fill="#005999" stroke="#005999"></path><path d="M907 362L757 413L911 439Z" fill="#0b5fb0" stroke="#0b5fb0"></path><path d="M1304 588L1147 492L1157 589Z" fill="#005ca5" stroke="#005ca5"></path><path d="M1147 492L1171 411L1076 472Z" fill="#00568e" stroke="#00568e"></path><path d="M825 303L757 413L907 362Z" fill="#2b63c5" stroke="#2b63c5"></path><path d="M785 567L643 672L807 631Z" fill="#0b5fb0" stroke="#0b5fb0"></path><path d="M906 308L893 328L906 335Z" fill="#054154" stroke="#054154"></path><path d="M906 335L893 328L907 362Z" fill="#004a6b" stroke="#004a6b"></path><path d="M757 413L682 502L807 540Z" fill="#0b5fb0" stroke="#0b5fb0"></path><path d="M995 299L906 308L906 335Z" fill="#005383" stroke="#005383"></path><path d="M893 328L825 303L907 362Z" fill="#004f77" stroke="#004f77"></path><path d="M1091 320L991 477L1076 472Z" fill="#2b63c5" stroke="#2b63c5"></path><path d="M1171 411L1091 320L1076 472Z" fill="#004a6b" stroke="#004a6b"></path><path d="M1300 690L1291 638L1176 679Z" fill="#005999" stroke="#005999"></path><path d="M1176 679L1291 638L1157 589Z" fill="#1b61bb" stroke="#1b61bb"></path><path d="M682 502L643 672L785 567Z" fill="#004a6b" stroke="#004a6b"></path><path d="M643 672L669 758L755 777Z" fill="#1b61bb" stroke="#1b61bb"></path><path d="M777 933L867 945L906 874Z" fill="#004a6b" stroke="#004a6b"></path><path d="M1109 850L1255 782L1176 679Z" fill="#005383" stroke="#005383"></path><path d="M993 950L1050 940L1050 814Z" fill="#005383" stroke="#005383"></path><path d="M1109 850L1209 883L1255 782Z" fill="#2b63c5" stroke="#2b63c5"></path><path d="M925 987L993 950L906 874Z" fill="#004f77" stroke="#004f77"></path><path d="M906 874L993 950L1050 814Z" fill="#005999" stroke="#005999"></path><path d="M1364 544L1304 588L1406 578Z" fill="#00568e" stroke="#00568e"></path><path d="M1291 638L1304 588L1157 589Z" fill="#1b61bb" stroke="#1b61bb"></path><path d="M1304 588L1257 440L1147 492Z" fill="#004a6b" stroke="#004a6b"></path><path d="M1171 411L1141 311L1091 320Z" fill="#00465f" stroke="#00465f"></path><path d="M1289 755L1300 690L1176 679Z" fill="#1b61bb" stroke="#1b61bb"></path><path d="M777 933L906 874L755 777Z" fill="#004f77" stroke="#004f77"></path><path d="M906 308L825 303L893 328Z" fill="#005999" stroke="#005999"></path><path d="M585 486L618 531L682 502Z" fill="#054154" stroke="#054154"></path><path d="M925 237L825 303L906 308Z" fill="#005383" stroke="#005383"></path><path d="M1255 782L1289 755L1176 679Z" fill="#00568e" stroke="#00568e"></path><path d="M1174 328L1141 311L1171 411Z" fill="#054154" stroke="#054154"></path><path d="M996 133L925 237L995 299Z" fill="#005383" stroke="#005383"></path><path d="M643 672L645 767L669 758Z" fill="#00465f" stroke="#00465f"></path><path d="M669 758L733 908L755 777Z" fill="#005999" stroke="#005999"></path><path d="M1270 399L1174 328L1171 411Z" fill="#004f77" stroke="#004f77"></path><path d="M1050 940L1209 883L1109 850Z" fill="#054154" stroke="#054154"></path><path d="M1331 789L1335 756L1289 755Z" fill="#004f77" stroke="#004f77"></path><path d="M645 392L682 502L757 413Z" fill="#005383" stroke="#005383"></path><path d="M682 502L618 531L643 672Z" fill="#00465f" stroke="#00465f"></path><path d="M643 672L578 752L645 767Z" fill="#054154" stroke="#054154"></path><path d="M733 908L777 933L755 777Z" fill="#005ca5" stroke="#005ca5"></path><path d="M873 990L925 987L867 945Z" fill="#1b61bb" stroke="#1b61bb"></path><path d="M867 945L925 987L906 874Z" fill="#004f77" stroke="#004f77"></path><path d="M1060 1080L1150 1034L1050 940Z" fill="#00465f" stroke="#00465f"></path><path d="M1150 1034L1255 931L1209 883Z" fill="#004a6b" stroke="#004a6b"></path><path d="M1338 482L1270 399L1257 440Z" fill="#004a6b" stroke="#004a6b"></path><path d="M1257 440L1270 399L1171 411Z" fill="#1b61bb" stroke="#1b61bb"></path><path d="M645 767L733 908L669 758Z" fill="#0b5fb0" stroke="#0b5fb0"></path><path d="M1061 149L995 299L1091 320Z" fill="#005999" stroke="#005999"></path><path d="M995 299L925 237L906 308Z" fill="#004a6b" stroke="#004a6b"></path><path d="M787 958L873 990L867 945Z" fill="#1b61bb" stroke="#1b61bb"></path><path d="M787 958L867 945L777 933Z" fill="#054154" stroke="#054154"></path><path d="M733 908L787 958L777 933Z" fill="#004a6b" stroke="#004a6b"></path><path d="M1331 789L1289 755L1255 782Z" fill="#005ca5" stroke="#005ca5"></path><path d="M1289 755L1335 756L1300 690Z" fill="#0b5fb0" stroke="#0b5fb0"></path><path d="M1406 578L1304 588L1291 638Z" fill="#2b63c5" stroke="#2b63c5"></path><path d="M1304 588L1338 482L1257 440Z" fill="#004f77" stroke="#004f77"></path><path d="M717 242L757 413L825 303Z" fill="#004f77" stroke="#004f77"></path><path d="M641 302L645 392L757 413Z" fill="#004f77" stroke="#004f77"></path><path d="M1364 544L1338 482L1304 588Z" fill="#005999" stroke="#005999"></path><path d="M1255 931L1331 789L1255 782Z" fill="#005383" stroke="#005383"></path><path d="M1406 578L1291 638L1300 690Z" fill="#00568e" stroke="#00568e"></path><path d="M1406 578L1300 690L1451 618Z" fill="#005999" stroke="#005999"></path><path d="M645 392L585 486L682 502Z" fill="#00465f" stroke="#00465f"></path><path d="M618 531L556 620L643 672Z" fill="#054154" stroke="#054154"></path><path d="M496 575L556 620L618 531Z" fill="#005383" stroke="#005383"></path><path d="M556 620L578 752L643 672Z" fill="#004f77" stroke="#004f77"></path><path d="M645 767L611 950L733 908Z" fill="#00568e" stroke="#00568e"></path><path d="M1338 482L1293 346L1270 399Z" fill="#005ca5" stroke="#005ca5"></path><path d="M1270 399L1293 346L1174 328Z" fill="#00465f" stroke="#00465f"></path><path d="M1174 328L1262 292L1141 311Z" fill="#005999" stroke="#005999"></path><path d="M1111 144L1061 149L1091 320Z" fill="#1b61bb" stroke="#1b61bb"></path><path d="M1471 400L1293 346L1338 482Z" fill="#054154" stroke="#054154"></path><path d="M1150 1034L1209 883L1050 940Z" fill="#005ca5" stroke="#005ca5"></path><path d="M1209 883L1255 931L1255 782Z" fill="#054154" stroke="#054154"></path><path d="M925 237L792 220L825 303Z" fill="#005ca5" stroke="#005ca5"></path><path d="M1293 346L1262 292L1174 328Z" fill="#0b5fb0" stroke="#0b5fb0"></path><path d="M1388 765L1300 690L1335 756Z" fill="#0b5fb0" stroke="#0b5fb0"></path><path d="M1364 544L1471 400L1338 482Z" fill="#0b5fb0" stroke="#0b5fb0"></path><path d="M1393 837L1388 765L1331 789Z" fill="#004f77" stroke="#004f77"></path><path d="M1331 789L1388 765L1335 756Z" fill="#1b61bb" stroke="#1b61bb"></path><path d="M792 220L717 242L825 303Z" fill="#00465f" stroke="#00465f"></path><path d="M645 392L536 387L585 486Z" fill="#2b63c5" stroke="#2b63c5"></path><path d="M717 242L641 302L757 413Z" fill="#1b61bb" stroke="#1b61bb"></path><path d="M1001 1080L993 950L925 987Z" fill="#005ca5" stroke="#005ca5"></path><path d="M1060 1080L1050 940L993 950Z" fill="#00568e" stroke="#00568e"></path><path d="M792 220L718 234L717 242Z" fill="#00568e" stroke="#00568e"></path><path d="M717 242L664 231L641 302Z" fill="#2b63c5" stroke="#2b63c5"></path><path d="M501 645L526 747L556 620Z" fill="#2b63c5" stroke="#2b63c5"></path><path d="M556 620L526 747L578 752Z" fill="#1b61bb" stroke="#1b61bb"></path><path d="M547 912L611 950L645 767Z" fill="#054154" stroke="#054154"></path><path d="M733 908L665 1080L787 958Z" fill="#1b61bb" stroke="#1b61bb"></path><path d="M884 100L810 184L925 237Z" fill="#00465f" stroke="#00465f"></path><path d="M925 237L810 184L792 220Z" fill="#004f77" stroke="#004f77"></path><path d="M792 220L810 184L718 234Z" fill="#00568e" stroke="#00568e"></path><path d="M919 1080L925 987L873 990Z" fill="#0b5fb0" stroke="#0b5fb0"></path><path d="M919 1080L1001 1080L925 987Z" fill="#0b5fb0" stroke="#0b5fb0"></path><path d="M802 1080L873 990L787 958Z" fill="#005999" stroke="#005999"></path><path d="M802 1080L919 1080L873 990Z" fill="#0b5fb0" stroke="#0b5fb0"></path><path d="M496 575L501 645L556 620Z" fill="#2b63c5" stroke="#2b63c5"></path><path d="M496 575L618 531L585 486Z" fill="#004a6b" stroke="#004a6b"></path><path d="M1001 1080L1060 1080L993 950Z" fill="#005ca5" stroke="#005ca5"></path><path d="M425 513L496 575L585 486Z" fill="#005ca5" stroke="#005ca5"></path><path d="M1111 144L1091 320L1141 311Z" fill="#005ca5" stroke="#005ca5"></path><path d="M1384 887L1393 837L1331 789Z" fill="#00465f" stroke="#00465f"></path><path d="M1388 765L1451 618L1300 690Z" fill="#00568e" stroke="#00568e"></path><path d="M1330 934L1331 789L1255 931Z" fill="#004f77" stroke="#004f77"></path><path d="M1263 1002L1330 934L1255 931Z" fill="#1b61bb" stroke="#1b61bb"></path><path d="M1436 782L1451 618L1388 765Z" fill="#005383" stroke="#005383"></path><path d="M1406 578L1471 400L1364 544Z" fill="#00465f" stroke="#00465f"></path><path d="M1393 219L1290 179L1262 292Z" fill="#005383" stroke="#005383"></path><path d="M1150 1034L1263 1002L1255 931Z" fill="#00568e" stroke="#00568e"></path><path d="M1184 1080L1263 1002L1150 1034Z" fill="#0b5fb0" stroke="#0b5fb0"></path><path d="M1061 149L996 133L995 299Z" fill="#2b63c5" stroke="#2b63c5"></path><path d="M547 912L645 767L513 861Z" fill="#054154" stroke="#054154"></path><path d="M533 310L536 387L641 302Z" fill="#0b5fb0" stroke="#0b5fb0"></path><path d="M641 302L536 387L645 392Z" fill="#054154" stroke="#054154"></path><path d="M665 1080L802 1080L787 958Z" fill="#2b63c5" stroke="#2b63c5"></path><path d="M722 72L664 231L718 234Z" fill="#005ca5" stroke="#005ca5"></path><path d="M718 234L664 231L717 242Z" fill="#00465f" stroke="#00465f"></path><path d="M1167 146L1111 144L1141 311Z" fill="#005999" stroke="#005999"></path><path d="M1061 149L993 110L996 133Z" fill="#005383" stroke="#005383"></path><path d="M1417 936L1384 887L1330 934Z" fill="#00568e" stroke="#00568e"></path><path d="M1330 934L1384 887L1331 789Z" fill="#004a6b" stroke="#004a6b"></path><path d="M1393 837L1436 782L1388 765Z" fill="#004f77" stroke="#004f77"></path><path d="M1566 875L1436 782L1393 837Z" fill="#0b5fb0" stroke="#0b5fb0"></path><path d="M501 645L487 752L526 747Z" fill="#00568e" stroke="#00568e"></path><path d="M513 861L645 767L578 752Z" fill="#004f77" stroke="#004f77"></path><path d="M423 669L487 752L501 645Z" fill="#005383" stroke="#005383"></path><path d="M1010 0L993 110L1061 149Z" fill="#1b61bb" stroke="#1b61bb"></path><path d="M996 133L884 100L925 237Z" fill="#005383" stroke="#005383"></path><path d="M810 184L722 72L718 234Z" fill="#004a6b" stroke="#004a6b"></path><path d="M1060 1080L1184 1080L1150 1034Z" fill="#005999" stroke="#005999"></path><path d="M1338 1080L1417 936L1330 934Z" fill="#00568e" stroke="#00568e"></path><path d="M1262 292L1167 146L1141 311Z" fill="#00568e" stroke="#00568e"></path><path d="M1010 0L951 0L993 110Z" fill="#0b5fb0" stroke="#0b5fb0"></path><path d="M513 861L578 752L526 747Z" fill="#0b5fb0" stroke="#0b5fb0"></path><path d="M611 950L665 1080L733 908Z" fill="#004a6b" stroke="#004a6b"></path><path d="M487 752L513 861L526 747Z" fill="#004f77" stroke="#004f77"></path><path d="M993 110L884 100L996 133Z" fill="#004f77" stroke="#004f77"></path><path d="M680 55L600 240L664 231Z" fill="#005999" stroke="#005999"></path><path d="M664 231L600 240L641 302Z" fill="#2b63c5" stroke="#2b63c5"></path><path d="M506 129L594 241L600 240Z" fill="#00568e" stroke="#00568e"></path><path d="M600 240L594 241L641 302Z" fill="#00568e" stroke="#00568e"></path><path d="M594 241L533 310L641 302Z" fill="#0b5fb0" stroke="#0b5fb0"></path><path d="M536 387L483 388L585 486Z" fill="#1b61bb" stroke="#1b61bb"></path><path d="M533 310L483 388L536 387Z" fill="#00465f" stroke="#00465f"></path><path d="M496 575L423 669L501 645Z" fill="#1b61bb" stroke="#1b61bb"></path><path d="M1393 219L1262 292L1293 346Z" fill="#00465f" stroke="#00465f"></path><path d="M1262 292L1290 179L1167 146Z" fill="#004f77" stroke="#004f77"></path><path d="M425 513L423 669L496 575Z" fill="#054154" stroke="#054154"></path><path d="M487 752L445 851L513 861Z" fill="#1b61bb" stroke="#1b61bb"></path><path d="M1574 730L1514 577L1451 618Z" fill="#005ca5" stroke="#005ca5"></path><path d="M1451 618L1514 577L1406 578Z" fill="#0b5fb0" stroke="#0b5fb0"></path><path d="M1550 462L1471 400L1406 578Z" fill="#0b5fb0" stroke="#0b5fb0"></path><path d="M1338 1080L1330 934L1263 1002Z" fill="#054154" stroke="#054154"></path><path d="M1384 887L1417 936L1393 837Z" fill="#2b63c5" stroke="#2b63c5"></path><path d="M1436 782L1574 730L1451 618Z" fill="#00568e" stroke="#00568e"></path><path d="M483 388L425 513L585 486Z" fill="#004a6b" stroke="#004a6b"></path><path d="M580 1047L665 1080L611 950Z" fill="#00465f" stroke="#00465f"></path><path d="M423 669L423 755L487 752Z" fill="#004a6b" stroke="#004a6b"></path><path d="M513 861L402 959L547 912Z" fill="#2b63c5" stroke="#2b63c5"></path><path d="M536 1017L580 1047L611 950Z" fill="#004a6b" stroke="#004a6b"></path><path d="M1471 400L1445 311L1293 346Z" fill="#005999" stroke="#005999"></path><path d="M1184 1080L1299 1080L1263 1002Z" fill="#054154" stroke="#054154"></path><path d="M1471 400L1461 329L1445 311Z" fill="#00568e" stroke="#00568e"></path><path d="M1516 325L1461 329L1471 400Z" fill="#004f77" stroke="#004f77"></path><path d="M423 755L445 851L487 752Z" fill="#004a6b" stroke="#004a6b"></path><path d="M533 310L419 339L483 388Z" fill="#004a6b" stroke="#004a6b"></path><path d="M483 388L419 339L425 513Z" fill="#0b5fb0" stroke="#0b5fb0"></path><path d="M594 241L509 275L533 310Z" fill="#00568e" stroke="#00568e"></path><path d="M506 129L509 275L594 241Z" fill="#004f77" stroke="#004f77"></path><path d="M536 1017L611 950L547 912Z" fill="#005ca5" stroke="#005ca5"></path><path d="M1480 127L1393 219L1494 132Z" fill="#054154" stroke="#054154"></path><path d="M1445 311L1393 219L1293 346Z" fill="#0b5fb0" stroke="#0b5fb0"></path><path d="M402 959L536 1017L547 912Z" fill="#1b61bb" stroke="#1b61bb"></path><path d="M1299 1080L1338 1080L1263 1002Z" fill="#005999" stroke="#005999"></path><path d="M880 0L722 72L884 100Z" fill="#2b63c5" stroke="#2b63c5"></path><path d="M884 100L722 72L810 184Z" fill="#054154" stroke="#054154"></path><path d="M1583 520L1550 462L1514 577Z" fill="#1b61bb" stroke="#1b61bb"></path><path d="M1514 577L1550 462L1406 578Z" fill="#004f77" stroke="#004f77"></path><path d="M1461 329L1516 325L1445 311Z" fill="#00568e" stroke="#00568e"></path><path d="M401 268L419 339L509 275Z" fill="#005ca5" stroke="#005ca5"></path><path d="M509 275L419 339L533 310Z" fill="#004a6b" stroke="#004a6b"></path><path d="M425 513L334 609L423 669Z" fill="#054154" stroke="#054154"></path><path d="M423 669L290 766L423 755Z" fill="#005383" stroke="#005383"></path><path d="M1568 808L1436 782L1566 875Z" fill="#00465f" stroke="#00465f"></path><path d="M1568 808L1574 730L1436 782Z" fill="#005999" stroke="#005999"></path><path d="M1010 0L1061 149L1111 144Z" fill="#005383" stroke="#005383"></path><path d="M993 110L951 0L884 100Z" fill="#004f77" stroke="#004f77"></path><path d="M1010 0L1111 144L1202 0Z" fill="#1b61bb" stroke="#1b61bb"></path><path d="M1111 144L1167 146L1202 0Z" fill="#2b63c5" stroke="#2b63c5"></path><path d="M1298 73L1167 146L1290 179Z" fill="#0b5fb0" stroke="#0b5fb0"></path><path d="M1386 123L1290 179L1393 219Z" fill="#004f77" stroke="#004f77"></path><path d="M1386 123L1325 112L1290 179Z" fill="#00568e" stroke="#00568e"></path><path d="M1590 437L1516 325L1471 400Z" fill="#004f77" stroke="#004f77"></path><path d="M476 1080L550 1080L536 1017Z" fill="#00465f" stroke="#00465f"></path><path d="M536 1017L550 1080L580 1047Z" fill="#054154" stroke="#054154"></path><path d="M580 1047L550 1080L665 1080Z" fill="#054154" stroke="#054154"></path><path d="M1625 671L1583 520L1514 577Z" fill="#005ca5" stroke="#005ca5"></path><path d="M1550 462L1590 437L1471 400Z" fill="#2b63c5" stroke="#2b63c5"></path><path d="M951 0L880 0L884 100Z" fill="#005383" stroke="#005383"></path><path d="M1566 875L1393 837L1417 936Z" fill="#2b63c5" stroke="#2b63c5"></path><path d="M733 0L680 55L722 72Z" fill="#005383" stroke="#005383"></path><path d="M722 72L680 55L664 231Z" fill="#0b5fb0" stroke="#0b5fb0"></path><path d="M322 467L334 609L425 513Z" fill="#005383" stroke="#005383"></path><path d="M328 859L402 959L445 851Z" fill="#00568e" stroke="#00568e"></path><path d="M445 851L402 959L513 861Z" fill="#00568e" stroke="#00568e"></path><path d="M1386 123L1298 73L1325 112Z" fill="#005383" stroke="#005383"></path><path d="M1325 112L1298 73L1290 179Z" fill="#005ca5" stroke="#005ca5"></path><path d="M1338 1080L1408 1080L1417 936Z" fill="#004f77" stroke="#004f77"></path><path d="M1480 127L1386 123L1393 219Z" fill="#1b61bb" stroke="#1b61bb"></path><path d="M1583 520L1590 437L1550 462Z" fill="#2b63c5" stroke="#2b63c5"></path><path d="M1534 180L1393 219L1445 311Z" fill="#2b63c5" stroke="#2b63c5"></path><path d="M1639 492L1590 437L1583 520Z" fill="#004f77" stroke="#004f77"></path><path d="M1623 727L1625 671L1574 730Z" fill="#2b63c5" stroke="#2b63c5"></path><path d="M1513 979L1566 875L1417 936Z" fill="#005ca5" stroke="#005ca5"></path><path d="M1408 1080L1513 979L1417 936Z" fill="#054154" stroke="#054154"></path><path d="M1623 727L1574 730L1568 808Z" fill="#005383" stroke="#005383"></path><path d="M1574 730L1625 671L1514 577Z" fill="#004f77" stroke="#004f77"></path><path d="M328 859L445 851L423 755Z" fill="#00465f" stroke="#00465f"></path><path d="M880 0L733 0L722 72Z" fill="#004a6b" stroke="#004a6b"></path><path d="M1207 0L1167 146L1298 73Z" fill="#004a6b" stroke="#004a6b"></path><path d="M1207 0L1202 0L1167 146Z" fill="#005383" stroke="#005383"></path><path d="M1297 0L1207 0L1298 73Z" fill="#1b61bb" stroke="#1b61bb"></path><path d="M419 339L322 467L425 513Z" fill="#004f77" stroke="#004f77"></path><path d="M1649 865L1623 727L1568 808Z" fill="#0b5fb0" stroke="#0b5fb0"></path><path d="M378 230L401 268L509 275Z" fill="#2b63c5" stroke="#2b63c5"></path><path d="M419 339L245 403L322 467Z" fill="#00465f" stroke="#00465f"></path><path d="M506 129L600 240L530 77Z" fill="#004f77" stroke="#004f77"></path><path d="M530 77L600 240L680 55Z" fill="#004f77" stroke="#004f77"></path><path d="M402 959L476 1080L536 1017Z" fill="#054154" stroke="#054154"></path><path d="M1677 514L1639 492L1583 520Z" fill="#00465f" stroke="#00465f"></path><path d="M1590 437L1582 317L1516 325Z" fill="#0b5fb0" stroke="#0b5fb0"></path><path d="M1677 514L1583 520L1625 671Z" fill="#005999" stroke="#005999"></path><path d="M290 766L328 859L423 755Z" fill="#054154" stroke="#054154"></path><path d="M402 959L426 1080L476 1080Z" fill="#005383" stroke="#005383"></path><path d="M290 766L423 669L334 609Z" fill="#004a6b" stroke="#004a6b"></path><path d="M1637 307L1582 317L1590 437Z" fill="#0b5fb0" stroke="#0b5fb0"></path><path d="M238 660L290 766L334 609Z" fill="#054154" stroke="#054154"></path><path d="M539 50L530 77L680 55Z" fill="#0b5fb0" stroke="#0b5fb0"></path><path d="M506 129L378 230L509 275Z" fill="#005999" stroke="#005999"></path><path d="M1386 123L1297 0L1298 73Z" fill="#1b61bb" stroke="#1b61bb"></path><path d="M1461 0L1297 0L1386 123Z" fill="#2b63c5" stroke="#2b63c5"></path><path d="M345 107L378 230L506 129Z" fill="#0b5fb0" stroke="#0b5fb0"></path><path d="M245 403L257 476L322 467Z" fill="#005ca5" stroke="#005ca5"></path><path d="M290 766L287 812L328 859Z" fill="#00465f" stroke="#00465f"></path><path d="M295 1080L426 1080L402 959Z" fill="#005383" stroke="#005383"></path><path d="M1534 180L1445 311L1516 325Z" fill="#005383" stroke="#005383"></path><path d="M614 0L539 50L680 55Z" fill="#2b63c5" stroke="#2b63c5"></path><path d="M530 77L400 0L506 129Z" fill="#00568e" stroke="#00568e"></path><path d="M733 0L614 0L680 55Z" fill="#005ca5" stroke="#005ca5"></path><path d="M335 949L402 959L328 859Z" fill="#005ca5" stroke="#005ca5"></path><path d="M262 923L335 949L328 859Z" fill="#054154" stroke="#054154"></path><path d="M1594 267L1534 180L1516 325Z" fill="#005383" stroke="#005383"></path><path d="M1534 180L1494 132L1393 219Z" fill="#2b63c5" stroke="#2b63c5"></path><path d="M1480 127L1461 0L1386 123Z" fill="#2b63c5" stroke="#2b63c5"></path><path d="M1734 430L1637 307L1590 437Z" fill="#00465f" stroke="#00465f"></path><path d="M1582 317L1594 267L1516 325Z" fill="#005ca5" stroke="#005ca5"></path><path d="M1736 674L1677 514L1625 671Z" fill="#005ca5" stroke="#005ca5"></path><path d="M1637 307L1594 267L1582 317Z" fill="#2b63c5" stroke="#2b63c5"></path><path d="M614 0L601 0L539 50Z" fill="#004a6b" stroke="#004a6b"></path><path d="M257 476L249 558L322 467Z" fill="#004a6b" stroke="#004a6b"></path><path d="M322 467L249 558L334 609Z" fill="#1b61bb" stroke="#1b61bb"></path><path d="M290 766L139 830L287 812Z" fill="#005999" stroke="#005999"></path><path d="M245 403L419 339L243 316Z" fill="#005ca5" stroke="#005ca5"></path><path d="M1566 875L1649 865L1568 808Z" fill="#00568e" stroke="#00568e"></path><path d="M1623 727L1736 674L1625 671Z" fill="#2b63c5" stroke="#2b63c5"></path><path d="M1632 937L1649 865L1566 875Z" fill="#005383" stroke="#005383"></path><path d="M1632 937L1566 875L1513 979Z" fill="#005ca5" stroke="#005ca5"></path><path d="M249 558L238 660L334 609Z" fill="#054154" stroke="#054154"></path><path d="M227 650L238 660L249 558Z" fill="#1b61bb" stroke="#1b61bb"></path><path d="M1623 1011L1632 937L1513 979Z" fill="#00465f" stroke="#00465f"></path><path d="M1734 430L1590 437L1639 492Z" fill="#00465f" stroke="#00465f"></path><path d="M1594 267L1605 161L1534 180Z" fill="#004a6b" stroke="#004a6b"></path><path d="M158 607L227 650L249 558Z" fill="#2b63c5" stroke="#2b63c5"></path><path d="M238 660L155 658L290 766Z" fill="#005999" stroke="#005999"></path><path d="M287 812L262 923L328 859Z" fill="#00465f" stroke="#00465f"></path><path d="M243 316L419 339L401 268Z" fill="#2b63c5" stroke="#2b63c5"></path><path d="M257 476L199 524L249 558Z" fill="#005383" stroke="#005383"></path><path d="M1408 1080L1569 1080L1513 979Z" fill="#054154" stroke="#054154"></path><path d="M1569 1080L1623 1011L1513 979Z" fill="#004f77" stroke="#004f77"></path><path d="M1632 937L1693 869L1649 865Z" fill="#004a6b" stroke="#004a6b"></path><path d="M1786 988L1693 869L1632 937Z" fill="#1b61bb" stroke="#1b61bb"></path><path d="M1649 865L1693 869L1623 727Z" fill="#00568e" stroke="#00568e"></path><path d="M233 957L262 923L178 953Z" fill="#0b5fb0" stroke="#0b5fb0"></path><path d="M335 949L295 1080L402 959Z" fill="#054154" stroke="#054154"></path><path d="M1780 784L1736 674L1623 727Z" fill="#2b63c5" stroke="#2b63c5"></path><path d="M1677 514L1734 430L1639 492Z" fill="#004a6b" stroke="#004a6b"></path><path d="M601 0L505 0L539 50Z" fill="#00568e" stroke="#00568e"></path><path d="M539 50L505 0L530 77Z" fill="#00568e" stroke="#00568e"></path><path d="M378 230L243 316L401 268Z" fill="#0b5fb0" stroke="#0b5fb0"></path><path d="M196 418L199 524L257 476Z" fill="#004a6b" stroke="#004a6b"></path><path d="M139 830L262 923L287 812Z" fill="#005383" stroke="#005383"></path><path d="M1569 1080L1598 1080L1623 1011Z" fill="#004a6b" stroke="#004a6b"></path><path d="M1828 848L1780 784L1693 869Z" fill="#00465f" stroke="#00465f"></path><path d="M1684 179L1594 267L1637 307Z" fill="#2b63c5" stroke="#2b63c5"></path><path d="M1684 179L1605 161L1594 267Z" fill="#1b61bb" stroke="#1b61bb"></path><path d="M1534 180L1587 111L1494 132Z" fill="#2b63c5" stroke="#2b63c5"></path><path d="M1494 132L1461 0L1480 127Z" fill="#005383" stroke="#005383"></path><path d="M241 269L243 316L378 230Z" fill="#054154" stroke="#054154"></path><path d="M245 403L196 418L257 476Z" fill="#005ca5" stroke="#005ca5"></path><path d="M1830 565L1734 430L1677 514Z" fill="#0b5fb0" stroke="#0b5fb0"></path><path d="M1594 73L1461 0L1494 132Z" fill="#054154" stroke="#054154"></path><path d="M243 316L196 418L245 403Z" fill="#004a6b" stroke="#004a6b"></path><path d="M1594 73L1587 111L1684 179Z" fill="#005383" stroke="#005383"></path><path d="M1605 161L1587 111L1534 180Z" fill="#2b63c5" stroke="#2b63c5"></path><path d="M400 0L345 107L506 129Z" fill="#004f77" stroke="#004f77"></path><path d="M235 163L241 269L378 230Z" fill="#005ca5" stroke="#005ca5"></path><path d="M243 316L169 413L196 418Z" fill="#054154" stroke="#054154"></path><path d="M155 658L238 660L227 650Z" fill="#005383" stroke="#005383"></path><path d="M262 923L233 957L335 949Z" fill="#2b63c5" stroke="#2b63c5"></path><path d="M113 500L158 607L199 524Z" fill="#00465f" stroke="#00465f"></path><path d="M199 524L158 607L249 558Z" fill="#005999" stroke="#005999"></path><path d="M158 607L155 658L227 650Z" fill="#005999" stroke="#005999"></path><path d="M233 957L295 1080L335 949Z" fill="#1b61bb" stroke="#1b61bb"></path><path d="M1837 420L1753 385L1734 430Z" fill="#054154" stroke="#054154"></path><path d="M1734 430L1753 385L1637 307Z" fill="#004f77" stroke="#004f77"></path><path d="M1780 784L1786 677L1736 674Z" fill="#054154" stroke="#054154"></path><path d="M1736 674L1830 565L1677 514Z" fill="#054154" stroke="#054154"></path><path d="M1780 784L1623 727L1693 869Z" fill="#005383" stroke="#005383"></path><path d="M196 418L133 479L199 524Z" fill="#00568e" stroke="#00568e"></path><path d="M158 607L102 679L155 658Z" fill="#00465f" stroke="#00465f"></path><path d="M70 351L169 413L243 316Z" fill="#00465f" stroke="#00465f"></path><path d="M1828 848L1693 869L1821 932Z" fill="#00568e" stroke="#00568e"></path><path d="M1684 179L1587 111L1605 161Z" fill="#005ca5" stroke="#005ca5"></path><path d="M1587 111L1594 73L1494 132Z" fill="#004a6b" stroke="#004a6b"></path><path d="M1753 385L1725 271L1637 307Z" fill="#054154" stroke="#054154"></path><path d="M505 0L400 0L530 77Z" fill="#00465f" stroke="#00465f"></path><path d="M345 107L235 163L378 230Z" fill="#004a6b" stroke="#004a6b"></path><path d="M1725 271L1684 179L1637 307Z" fill="#004a6b" stroke="#004a6b"></path><path d="M113 500L133 479L0 388Z" fill="#00465f" stroke="#00465f"></path><path d="M169 413L133 479L196 418Z" fill="#005ca5" stroke="#005ca5"></path><path d="M1840 696L1814 658L1786 677Z" fill="#005999" stroke="#005999"></path><path d="M1786 677L1814 658L1736 674Z" fill="#1b61bb" stroke="#1b61bb"></path><path d="M102 679L139 830L155 658Z" fill="#005ca5" stroke="#005ca5"></path><path d="M155 658L139 830L290 766Z" fill="#005383" stroke="#005383"></path><path d="M233 957L173 1080L295 1080Z" fill="#005999" stroke="#005999"></path><path d="M139 830L178 953L262 923Z" fill="#005999" stroke="#005999"></path><path d="M245 78L235 163L345 107Z" fill="#054154" stroke="#054154"></path><path d="M241 269L141 222L243 316Z" fill="#004a6b" stroke="#004a6b"></path><path d="M70 351L133 479L169 413Z" fill="#005999" stroke="#005999"></path><path d="M133 479L113 500L199 524Z" fill="#00568e" stroke="#00568e"></path><path d="M1814 658L1830 565L1736 674Z" fill="#00465f" stroke="#00465f"></path><path d="M1753 385L1865 279L1725 271Z" fill="#00465f" stroke="#00465f"></path><path d="M0 631L102 679L0 594Z" fill="#054154" stroke="#054154"></path><path d="M1687 0L1585 0L1594 73Z" fill="#2b63c5" stroke="#2b63c5"></path><path d="M1594 73L1585 0L1461 0Z" fill="#00465f" stroke="#00465f"></path><path d="M1780 784L1840 696L1786 677Z" fill="#004f77" stroke="#004f77"></path><path d="M1814 658L1920 681L1830 565Z" fill="#1b61bb" stroke="#1b61bb"></path><path d="M1920 779L1840 696L1780 784Z" fill="#005ca5" stroke="#005ca5"></path><path d="M1786 988L1632 937L1623 1011Z" fill="#005ca5" stroke="#005ca5"></path><path d="M1830 565L1837 420L1734 430Z" fill="#00568e" stroke="#00568e"></path><path d="M1795 36L1717 43L1684 179Z" fill="#1b61bb" stroke="#1b61bb"></path><path d="M1684 179L1717 43L1594 73Z" fill="#004f77" stroke="#004f77"></path><path d="M1844 411L1837 420L1920 473Z" fill="#005999" stroke="#005999"></path><path d="M1740 1080L1786 988L1623 1011Z" fill="#004a6b" stroke="#004a6b"></path><path d="M1598 1080L1740 1080L1623 1011Z" fill="#005999" stroke="#005999"></path><path d="M1920 473L1837 420L1830 565Z" fill="#004f77" stroke="#004f77"></path><path d="M1837 420L1844 411L1753 385Z" fill="#004a6b" stroke="#004a6b"></path><path d="M250 0L245 78L345 107Z" fill="#2b63c5" stroke="#2b63c5"></path><path d="M235 163L141 222L241 269Z" fill="#005383" stroke="#005383"></path><path d="M1920 942L1821 932L1920 967Z" fill="#004a6b" stroke="#004a6b"></path><path d="M1786 988L1821 932L1693 869Z" fill="#00568e" stroke="#00568e"></path><path d="M151 168L141 222L235 163Z" fill="#005ca5" stroke="#005ca5"></path><path d="M0 686L63 778L102 679Z" fill="#005ca5" stroke="#005ca5"></path><path d="M102 679L63 778L139 830Z" fill="#004a6b" stroke="#004a6b"></path><path d="M72 903L135 1006L178 953Z" fill="#004a6b" stroke="#004a6b"></path><path d="M102 679L158 607L0 594Z" fill="#004f77" stroke="#004f77"></path><path d="M72 903L178 953L139 830Z" fill="#0b5fb0" stroke="#0b5fb0"></path><path d="M178 953L135 1006L233 957Z" fill="#005ca5" stroke="#005ca5"></path><path d="M135 1006L173 1080L233 957Z" fill="#1b61bb" stroke="#1b61bb"></path><path d="M1920 826L1869 845L1920 942Z" fill="#005383" stroke="#005383"></path><path d="M1821 932L1869 845L1828 848Z" fill="#0b5fb0" stroke="#0b5fb0"></path><path d="M1828 848L1869 845L1780 784Z" fill="#00465f" stroke="#00465f"></path><path d="M1840 696L1920 681L1814 658Z" fill="#004f77" stroke="#004f77"></path><path d="M149 100L151 168L235 163Z" fill="#004a6b" stroke="#004a6b"></path><path d="M0 388L70 351L0 347Z" fill="#2b63c5" stroke="#2b63c5"></path><path d="M141 222L70 351L243 316Z" fill="#2b63c5" stroke="#2b63c5"></path><path d="M63 778L72 903L139 830Z" fill="#2b63c5" stroke="#2b63c5"></path><path d="M135 1006L80 1080L173 1080Z" fill="#0b5fb0" stroke="#0b5fb0"></path><path d="M1844 194L1684 179L1725 271Z" fill="#00465f" stroke="#00465f"></path><path d="M245 78L149 100L235 163Z" fill="#005999" stroke="#005999"></path><path d="M400 0L250 0L345 107Z" fill="#054154" stroke="#054154"></path><path d="M1717 43L1687 0L1594 73Z" fill="#1b61bb" stroke="#1b61bb"></path><path d="M250 0L247 0L245 78Z" fill="#1b61bb" stroke="#1b61bb"></path><path d="M1920 779L1920 681L1840 696Z" fill="#2b63c5" stroke="#2b63c5"></path><path d="M1920 681L1920 528L1830 565Z" fill="#054154" stroke="#054154"></path><path d="M1844 411L1865 279L1753 385Z" fill="#054154" stroke="#054154"></path><path d="M1920 330L1865 279L1844 411Z" fill="#0b5fb0" stroke="#0b5fb0"></path><path d="M1740 1080L1812 1080L1786 988Z" fill="#004a6b" stroke="#004a6b"></path><path d="M1869 845L1920 779L1780 784Z" fill="#004a6b" stroke="#004a6b"></path><path d="M1920 528L1920 473L1830 565Z" fill="#00568e" stroke="#00568e"></path><path d="M1920 826L1920 779L1869 845Z" fill="#004f77" stroke="#004f77"></path><path d="M0 594L158 607L113 500Z" fill="#005ca5" stroke="#005ca5"></path><path d="M63 778L0 863L72 903Z" fill="#054154" stroke="#054154"></path><path d="M0 388L0 594L113 500Z" fill="#004a6b" stroke="#004a6b"></path><path d="M156 0L149 100L245 78Z" fill="#005ca5" stroke="#005ca5"></path><path d="M0 347L70 351L0 284Z" fill="#004f77" stroke="#004f77"></path><path d="M0 631L0 686L102 679Z" fill="#00568e" stroke="#00568e"></path><path d="M1920 273L1844 194L1865 279Z" fill="#005ca5" stroke="#005ca5"></path><path d="M1865 279L1844 194L1725 271Z" fill="#004a6b" stroke="#004a6b"></path><path d="M1717 43L1732 0L1687 0Z" fill="#0b5fb0" stroke="#0b5fb0"></path><path d="M1920 942L1869 845L1821 932Z" fill="#005999" stroke="#005999"></path><path d="M1795 36L1732 0L1717 43Z" fill="#005383" stroke="#005383"></path><path d="M72 127L141 222L151 168Z" fill="#004f77" stroke="#004f77"></path><path d="M70 351L0 388L133 479Z" fill="#00568e" stroke="#00568e"></path><path d="M156 0L121 95L149 100Z" fill="#005ca5" stroke="#005ca5"></path><path d="M149 100L121 95L151 168Z" fill="#1b61bb" stroke="#1b61bb"></path><path d="M1920 473L1920 330L1844 411Z" fill="#005999" stroke="#005999"></path><path d="M0 686L0 863L63 778Z" fill="#005999" stroke="#005999"></path><path d="M0 1030L80 1080L135 1006Z" fill="#004f77" stroke="#004f77"></path><path d="M0 1030L135 1006L72 903Z" fill="#00465f" stroke="#00465f"></path><path d="M0 284L70 351L141 222Z" fill="#054154" stroke="#054154"></path><path d="M1920 967L1821 932L1786 988Z" fill="#00568e" stroke="#00568e"></path><path d="M0 863L0 900L72 903Z" fill="#2b63c5" stroke="#2b63c5"></path><path d="M1844 194L1795 36L1684 179Z" fill="#054154" stroke="#054154"></path><path d="M1920 127L1795 36L1844 194Z" fill="#00568e" stroke="#00568e"></path><path d="M1920 330L1920 273L1865 279Z" fill="#0b5fb0" stroke="#0b5fb0"></path><path d="M1812 1080L1920 967L1786 988Z" fill="#00568e" stroke="#00568e"></path><path d="M247 0L156 0L245 78Z" fill="#1b61bb" stroke="#1b61bb"></path><path d="M121 95L72 127L151 168Z" fill="#00465f" stroke="#00465f"></path><path d="M0 34L72 127L121 95Z" fill="#0b5fb0" stroke="#0b5fb0"></path><path d="M0 192L0 284L141 222Z" fill="#005383" stroke="#005383"></path><path d="M0 900L0 1030L72 903Z" fill="#00465f" stroke="#00465f"></path><path d="M0 34L0 192L72 127Z" fill="#00465f" stroke="#00465f"></path><path d="M72 127L0 192L141 222Z" fill="#0b5fb0" stroke="#0b5fb0"></path><path d="M1812 1080L1920 1080L1920 967Z" fill="#004f77" stroke="#004f77"></path><path d="M1920 273L1920 133L1844 194Z" fill="#1b61bb" stroke="#1b61bb"></path><path d="M1920 133L1920 127L1844 194Z" fill="#004f77" stroke="#004f77"></path><path d="M0 1030L0 1080L80 1080Z" fill="#005383" stroke="#005383"></path><path d="M1920 127L1865 0L1795 36Z" fill="#005999" stroke="#005999"></path><path d="M1795 36L1865 0L1732 0Z" fill="#004f77" stroke="#004f77"></path><path d="M156 0L0 34L121 95Z" fill="#00465f" stroke="#00465f"></path><path d="M1920 127L1920 0L1865 0Z" fill="#005ca5" stroke="#005ca5"></path><path d="M156 0L0 0L0 34Z" fill="#0b5fb0" stroke="#0b5fb0"></path></g></svg>